<svg xmlns="http://www.w3.org/2000/svg" width="733.277" height="733.277" viewBox="0 0 733.277 733.277">
  <path id="icons8-facebook" d="M84.475,3A81.557,81.557,0,0,0,3,84.475V654.8a81.557,81.557,0,0,0,81.475,81.475H654.8A81.557,81.557,0,0,0,736.277,654.8V84.475A81.557,81.557,0,0,0,654.8,3Zm0,81.475H654.8l.081,570.327h-186.9V493.285h96.353l14.323-111H468.619V311.555c0-32.1,8.946-53.785,54.98-53.785H581.76V158.71a815.285,815.285,0,0,0-85.215-4.217c-84.49,0-142.341,51.567-142.341,146.242v81.716H258.724V493.444H354.2V654.8H84.475Z" transform="translate(-3 -3)" fill="#be891e"/>
</svg>
