<svg xmlns="http://www.w3.org/2000/svg" width="826.474" height="826.474" viewBox="0 0 826.474 826.474">
  <path id="icons8-linkedin" d="M102.39,4A98.685,98.685,0,0,0,4,102.39V732.084a98.685,98.685,0,0,0,98.39,98.39H732.084a98.685,98.685,0,0,0,98.39-98.39V102.39A98.685,98.685,0,0,0,732.084,4Zm0,39.356H732.084a58.739,58.739,0,0,1,59.034,59.034V732.084a58.739,58.739,0,0,1-59.034,59.034H102.39a58.739,58.739,0,0,1-59.034-59.034V102.39A58.739,58.739,0,0,1,102.39,43.356Zm98.39,98.626A84.989,84.989,0,0,0,145.465,160.5a64.937,64.937,0,0,0-23.181,49.47A72.592,72.592,0,0,0,194.7,278.193h0a19.445,19.445,0,0,0,5.9,1.043,73.655,73.655,0,0,0,78.476-69.286v-1.043a74.52,74.52,0,0,0-78.3-66.925Zm0,38.9c27.392,0,38.215,12.24,39.356,29.517-.236,16.844-10.665,29.891-39.356,29.891-27.254,0-39.592-13.952-39.592-30.4a24.125,24.125,0,0,1,9.308-19.678,46.48,46.48,0,0,1,30.284-9.347ZM141.746,299.169a19.678,19.678,0,0,0-19.678,19.678V692.728a19.678,19.678,0,0,0,19.678,19.678H259.813a19.678,19.678,0,0,0,19.678-19.678V318.847a19.678,19.678,0,0,0-19.678-19.678Zm177.1,0a19.678,19.678,0,0,0-19.678,19.678V692.728a19.678,19.678,0,0,0,19.678,19.678H436.915a19.678,19.678,0,0,0,19.678-19.678V495.949a75.367,75.367,0,0,1,12.3-43.292,39.356,39.356,0,0,1,36.542-16.687,42.583,42.583,0,0,1,37.388,17.415,72.809,72.809,0,0,1,12.161,42.563v196.78a19.678,19.678,0,0,0,19.678,19.678H692.728a19.678,19.678,0,0,0,19.678-19.678v-211.3a192.332,192.332,0,0,0-46.853-135.66,154.885,154.885,0,0,0-114.25-46.6,171.789,171.789,0,0,0-94.71,28.021v-8.344a19.678,19.678,0,0,0-19.678-19.678ZM161.424,338.525h78.712V673.051H161.424Zm177.1,0h78.712v30.7a19.678,19.678,0,0,0,35.42,11.807,123.617,123.617,0,0,1,98.646-42.5A114.132,114.132,0,0,1,637,372.8a152.287,152.287,0,0,1,36.05,108.622V673.051H594.339v-177.1a109.627,109.627,0,0,0-19.875-66,85.639,85.639,0,0,0-68.341-33.236,82.647,82.647,0,0,0-68.873,32.7,111.436,111.436,0,0,0-20.013,66.531v177.1H338.525Z" transform="translate(-4 -4)" fill="#be891e"/>
</svg>
